<svg xmlns="http://www.w3.org/2000/svg" viewBox="0 0 27 27"><title>logo-instagram</title><path d="M19.69,0H7.31A7.32,7.32,0,0,0,0,7.31V19.69A7.32,7.32,0,0,0,7.31,27H19.69A7.32,7.32,0,0,0,27,19.69V7.31A7.32,7.32,0,0,0,19.69,0Zm5.73,19.69a5.73,5.73,0,0,1-5.73,5.73H7.31a5.73,5.73,0,0,1-5.73-5.73V7.31A5.73,5.73,0,0,1,7.31,1.58H19.69a5.73,5.73,0,0,1,5.73,5.73V19.69Z" transform="translate(0 0)" style="fill:red"/><path d="M13.5,6.12a7.38,7.38,0,1,0,7.38,7.38A7.39,7.39,0,0,0,13.5,6.12Zm0,13.18a5.8,5.8,0,1,1,5.8-5.8A5.81,5.81,0,0,1,13.5,19.3Z" transform="translate(0 0)" style="fill:red"/><path d="M21.06,3.5a2.18,2.18,0,1,0,2.18,2.18A2.18,2.18,0,0,0,21.06,3.5Zm0,2.78a0.6,0.6,0,1,1,.6-0.6A0.6,0.6,0,0,1,21.06,6.28Z" transform="translate(0 0)" style="fill:red"/></svg>