<svg xmlns="http://www.w3.org/2000/svg" xmlns:xlink="http://www.w3.org/1999/xlink" width="3000" height="3000" viewBox="0 0 3000 3000">
  <defs>
    <style>
      .cls-1 {
        fill: #fff;
        filter: url(#filter);
      }

      .cls-1, .cls-2 {
        fill-rule: evenodd;
      }

      .cls-2 {
        fill: red;
        filter: url(#filter-2);
      }
    </style>
    <filter id="filter" x="175.406" y="80.844" width="2647.844" height="2856.906" filterUnits="userSpaceOnUse">
      <feFlood result="flood" flood-color="red"/>
      <feComposite result="composite" operator="in" in2="SourceGraphic"/>
      <feBlend result="blend" in2="SourceGraphic"/>
    </filter>
    <filter id="filter-2" x="586.188" y="498.188" width="1826.282" height="1805.122" filterUnits="userSpaceOnUse">
      <feFlood result="flood" flood-color="#fff"/>
      <feComposite result="composite" operator="in" in2="SourceGraphic"/>
      <feBlend result="blend" in2="SourceGraphic"/>
    </filter>
  </defs>
  <path id="Fond_1" data-name="Fond 1" class="cls-1" d="M1876.92,136.7c184.07,54.564,350.98,145.927,489.2,264.777,233.94,201.147,384.75,477.222,440.23,780.383q8.445,300.99,16.9,602.02V2937.74c-319.41-49.65-613.97-236.43-912.53-301.01a1337.928,1337.928,0,0,1-380.94,66.98c-285.3,8.13-596.233-73.97-851.5-273-402.406-313.76-521.816-775.39-500.5-1111.5,8.64-136.22,42.945-281.56,104-429,53.928-130.224,116.012-233.4,184.1-318.722,91.021-114.065,214.439-224.06,381.4-318.278,89.084-50.271,180.419-89.148,273-117a1308.983,1308.983,0,0,1,214.5-45.5C1515.29,68.136,1701.41,84.672,1876.92,136.7Z"/>
  <path id="Fond_2" data-name="Fond 2" class="cls-2" d="M2412.46,2298.1c-69.87-5.87-136.57-28.78-194.35-67.6-37.37-25.09-91.33-76.47-135.2-152.1-35.97-61.99-58.76-130.77-67.6-202.8,0.26-48.04.26-95.6,0-143.65-0.38-68.69-3.4-136.82-2.64-201.9,0.54-45.83,1.45-83.62-2.89-128.62a870.484,870.484,0,0,0-26-143,475.41,475.41,0,0,0-110.04-198.82c-62.68-67.517-146.32-116-240.96-139.18a497.714,497.714,0,0,0-268.12,8.774,489.684,489.684,0,0,0-169,92.946c-59.7,50.57-106.35,114.49-135.2,185.9-24.48,60.59-37.95,131.5-33.8,211.25a517.842,517.842,0,0,0,53.62,203.13c48.44,97.68,108.39,157.07,166.08,194.02,97.42,62.42,220.27,79.57,346.45,59.15,71.6-11.58,140.06-37.43,202.8-76.05q25.35,33.81,50.7,67.6c20.9,27.34,40.65,54.52,60.2,82.82q24.525,35.505,46.45,70.18c19.95,31.62,38.62,63.26,56.82,96.28-94.16,60.22-194.16,107.06-298.67,139.42-74.15,22.97-139.92,36.5-201.83,42.58-104.92,10.29-191.39,3.6-266.5-13a780.883,780.883,0,0,1-208-78c-89.548-49.27-181.965-124.38-266.5-240.5-52.86-72.61-97.2-157.01-130-253.5-38.506-113.28-53.272-217.17-52-312,1.233-91.9,17.977-193.51,58.5-305.5,28.113-77.69,60.614-140.826,97.5-195a828.691,828.691,0,0,1,78-97.5c40.329-43.422,96.371-90.472,162.5-136.5,55.119-38.366,107.709-69.055,156-91,68.68-31.211,138.42-52.719,208-65,50.78-8.964,106.52-13.253,169.98-12.676,130.31,1.186,237.34,22.652,317.52,51.676,65.39,23.669,144.97,65.631,227.5,123.5,71.83,50.361,130.89,104.065,169,149.5,37.75,44.993,67.9,90.564,91,136.5,52.92,105.22,67.43,214.97,71.5,273,8.87,126.52,14.3,288.04,10.73,347.42C2392.58,1769.51,2400.74,2059.9,2412.46,2298.1Zm-955.18-942.17-409.5-318.5"/>
</svg>
