<svg xmlns="http://www.w3.org/2000/svg" viewBox="0 0 33.92 34"><title>logo-linkedin</title><path d="M5.67,0.77a4.5,4.5,0,1,0,4.5,4.5A4.51,4.51,0,0,0,5.67.77Zm0,1.67A2.83,2.83,0,1,1,2.84,5.27,2.83,2.83,0,0,1,5.67,2.45ZM26,10.21a8.47,8.47,0,0,0-5.44,1.88V11.75a1,1,0,0,0-1-1H13.17a1,1,0,0,0-1,1v22a1,1,0,0,0,1,1h6.7a1,1,0,0,0,1-1V22.66c0-3.31.82-4.54,3-4.54s2.48,1.46,2.48,4.72V33.77a1,1,0,0,0,1,1h6.71a1,1,0,0,0,1-1V21.5C35.09,15.92,34,10.21,26,10.21Zm-23.88.56a1,1,0,0,0-1,1v22a1,1,0,0,0,1,1h7a1,1,0,0,0,1-1v-22a1,1,0,0,0-1-1h-7ZM26,12.21c5.87,0,7.05,3.55,7.05,9.29V32.77H28.38V22.84c0-2.35,0-6.72-4.48-6.72-5,0-5,4.93-5,6.55V32.77h-4.7v-20H18.6v2a1.08,1.08,0,0,0,1.09,1,1,1,0,0,0,.88-0.54A6.08,6.08,0,0,1,26,12.21Zm-22.88.56h5v20h-5v-20Z" transform="translate(-1.17 -0.77)" style="fill:red"/></svg>